# WaveFront *.obj file (generated by CINEMA 4D)

mtllib ./sun2.mtl

v -49.27355194091797 124.42087554931641 -184.47341918945312
v -49.27355194091797 142.21395874023438 -184.47341918945312
v 58.85484313964844 124.42087554931641 -184.47341918945312
v 58.85484313964844 142.21395874023438 -184.47341918945312
v 58.85484313964844 124.42087554931641 -259.27096557617188
v 58.85484313964844 142.21395874023438 -259.27096557617188
v -49.27355194091797 124.42087554931641 -259.27096557617188
v -49.27355194091797 142.21395874023438 -259.27096557617188
# 8 vertices

vn 0 0 1
vn 1 0 0
vn 0 0 -1
vn -1 0 0
vn 0 1 0
vn 0 -1 0
# 6 normals

vt 0 0 0
vt 0 1 0
vt 1 1 0
vt 1 0 0
# 4 texture coordinates

o 立方体.7
usemtl RandomColor_1
f 3/4/1 4/3/1 2/2/1 1/1/1
f 5/4/2 6/3/2 4/2/2 3/1/2
f 7/4/3 8/3/3 6/2/3 5/1/3
f 1/4/4 2/3/4 8/2/4 7/1/4
f 4/4/5 6/3/5 8/2/5 2/1/5
f 5/4/6 3/3/6 1/2/6 7/1/6

v -49.27355194091797 104.78769683837891 -312.66409301757812
v -49.27355194091797 152.73326110839844 -312.66409301757812
v 58.85484313964844 104.78769683837891 -312.66409301757812
v 58.85484313964844 152.73326110839844 -312.66409301757812
v 58.85484313964844 104.78769683837891 -425.99862670898438
v 58.85484313964844 152.73326110839844 -425.99862670898438
v -49.27355194091797 104.78769683837891 -425.99862670898438
v -49.27355194091797 152.73326110839844 -425.99862670898438
# 8 vertices

# 0 normal

# 0 texture coordinate

o 立方体.6
usemtl RandomColor_2
f 11/4/1 12/3/1 10/2/1 9/1/1
f 13/4/2 14/3/2 12/2/2 11/1/2
f 15/4/3 16/3/3 14/2/3 13/1/3
f 9/4/4 10/3/4 16/2/4 15/1/4
f 12/4/5 14/3/5 16/2/5 10/1/5
f 13/4/6 11/3/6 9/2/6 15/1/6

v -49.27355194091797 139.45742797851562 -136.9656982421875
v -49.27355194091797 163.32048034667969 -136.9656982421875
v 58.85484313964844 139.45742797851562 -136.9656982421875
v 58.85484313964844 163.32048034667969 -136.9656982421875
v 58.85484313964844 139.45742797851562 -425.3890380859375
v 58.85484313964844 163.32048034667969 -425.3890380859375
v -49.27355194091797 139.45742797851562 -425.3890380859375
v -49.27355194091797 163.32048034667969 -425.3890380859375
# 8 vertices

# 0 normal

# 0 texture coordinate

o 立方体.5
usemtl RandomColor_3
f 19/4/1 20/3/1 18/2/1 17/1/1
f 21/4/2 22/3/2 20/2/2 19/1/2
f 23/4/3 24/3/3 22/2/3 21/1/3
f 17/4/4 18/3/4 24/2/4 23/1/4
f 20/4/5 22/3/5 24/2/5 18/1/5
f 21/4/6 19/3/6 17/2/6 23/1/6

# 0 vertex

# 0 normal

# 0 texture coordinate

o 立方体.7_1
usemtl RandomColor_4
f 3/4/1 4/3/1 2/2/1 1/1/1
f 5/4/2 6/3/2 4/2/2 3/1/2
f 7/4/3 8/3/3 6/2/3 5/1/3
f 1/4/4 2/3/4 8/2/4 7/1/4
f 4/4/5 6/3/5 8/2/5 2/1/5
f 5/4/6 3/3/6 1/2/6 7/1/6

# 0 vertex

# 0 normal

# 0 texture coordinate

o 立方体.6_1
usemtl RandomColor_5
f 11/4/1 12/3/1 10/2/1 9/1/1
f 13/4/2 14/3/2 12/2/2 11/1/2
f 15/4/3 16/3/3 14/2/3 13/1/3
f 9/4/4 10/3/4 16/2/4 15/1/4
f 12/4/5 14/3/5 16/2/5 10/1/5
f 13/4/6 11/3/6 9/2/6 15/1/6

# 0 vertex

# 0 normal

# 0 texture coordinate

o 立方体.5_1
usemtl RandomColor_6
f 19/4/1 20/3/1 18/2/1 17/1/1
f 21/4/2 22/3/2 20/2/2 19/1/2
f 23/4/3 24/3/3 22/2/3 21/1/3
f 17/4/4 18/3/4 24/2/4 23/1/4
f 20/4/5 22/3/5 24/2/5 18/1/5
f 21/4/6 19/3/6 17/2/6 23/1/6

v -53.51088714599609 42.83371353149414 -264.75445556640625
v -53.51088714599609 66.69676208496094 -264.75445556640625
v -8.7747163772583 42.83371353149414 -264.75445556640625
v -8.7747163772583 66.69676208496094 -264.75445556640625
v -8.7747163772583 42.83371353149414 -315.6932373046875
v -8.7747163772583 66.69676208496094 -315.6932373046875
v -53.51088714599609 42.83371353149414 -315.6932373046875
v -53.51088714599609 66.69676208496094 -315.6932373046875
# 8 vertices

# 0 normal

# 0 texture coordinate

o 立方体.4
usemtl RandomColor_7
f 27/4/1 28/3/1 26/2/1 25/1/1
f 29/4/2 30/3/2 28/2/2 27/1/2
f 31/4/3 32/3/3 30/2/3 29/1/3
f 25/4/4 26/3/4 32/2/4 31/1/4
f 28/4/5 30/3/5 32/2/5 26/1/5
f 29/4/6 27/3/6 25/2/6 31/1/6

v 8.28295612335205 42.83371353149414 -277.23080444335938
v 8.28295612335205 66.69676208496094 -277.23080444335938
v 53.01912689208984 42.83371353149414 -277.23080444335938
v 53.01912689208984 66.69676208496094 -277.23080444335938
v 53.01912689208984 42.83371353149414 -315.66952514648438
v 53.01912689208984 66.69676208496094 -315.66952514648438
v 8.28295612335205 42.83371353149414 -315.66952514648438
v 8.28295612335205 66.69676208496094 -315.66952514648438
# 8 vertices

# 0 normal

# 0 texture coordinate

o 立方体.3
usemtl RandomColor_8
f 35/4/1 36/3/1 34/2/1 33/1/1
f 37/4/2 38/3/2 36/2/2 35/1/2
f 39/4/3 40/3/3 38/2/3 37/1/3
f 33/4/4 34/3/4 40/2/4 39/1/4
f 36/4/5 38/3/5 40/2/5 34/1/5
f 37/4/6 35/3/6 33/2/6 39/1/6

v -54.0641975402832 73.09210968017578 -40.6007194519043
v -54.0641975402832 96.95516204833984 -40.6007194519043
v 54.0641975402832 73.09210968017578 -40.6007194519043
v 54.0641975402832 96.95516204833984 -40.6007194519043
v 54.0641975402832 73.09210968017578 -143.17738342285156
v 54.0641975402832 96.95516204833984 -143.17738342285156
v -54.0641975402832 73.09210968017578 -143.17738342285156
v -54.0641975402832 96.95516204833984 -143.17738342285156
# 8 vertices

# 0 normal

# 0 texture coordinate

o 立方体.2
usemtl RandomColor_9
f 43/4/1 44/3/1 42/2/1 41/1/1
f 45/4/2 46/3/2 44/2/2 43/1/2
f 47/4/3 48/3/3 46/2/3 45/1/3
f 41/4/4 42/3/4 48/2/4 47/1/4
f 44/4/5 46/3/5 48/2/5 42/1/5
f 45/4/6 43/3/6 41/2/6 47/1/6

v -54.0641975402832 50.89772796630859 -39.99082183837891
v -54.0641975402832 74.76078033447266 -39.99082183837891
v 54.0641975402832 50.89772796630859 -39.99082183837891
v 54.0641975402832 74.76078033447266 -39.99082183837891
v 54.0641975402832 50.89772796630859 -185.38446044921875
v 54.0641975402832 74.76078033447266 -185.38446044921875
v -54.0641975402832 50.89772796630859 -185.38446044921875
v -54.0641975402832 74.76078033447266 -185.38446044921875
# 8 vertices

# 0 normal

# 0 texture coordinate

o 立方体.1
usemtl RandomColor_10
f 51/4/1 52/3/1 50/2/1 49/1/1
f 53/4/2 54/3/2 52/2/2 51/1/2
f 55/4/3 56/3/3 54/2/3 53/1/3
f 49/4/4 50/3/4 56/2/4 55/1/4
f 52/4/5 54/3/5 56/2/5 50/1/5
f 53/4/6 51/3/6 49/2/6 55/1/6

v -54.0641975402832 31.52167129516602 -39.29944229125977
v -54.0641975402832 55.38471984863281 -39.29944229125977
v 54.0641975402832 31.52167129516602 -39.29944229125977
v 54.0641975402832 55.38471984863281 -39.29944229125977
v 54.0641975402832 31.52167129516602 -316.42837524414062
v 54.0641975402832 55.38471984863281 -316.42837524414062
v -54.0641975402832 31.52167129516602 -316.42837524414062
v -54.0641975402832 55.38471984863281 -316.42837524414062
# 8 vertices

# 0 normal

# 0 texture coordinate

o 立方体
usemtl RandomColor_11
f 59/4/1 60/3/1 58/2/1 57/1/1
f 61/4/2 62/3/2 60/2/2 59/1/2
f 63/4/3 64/3/3 62/2/3 61/1/3
f 57/4/4 58/3/4 64/2/4 63/1/4
f 60/4/5 62/3/5 64/2/5 58/1/5
f 61/4/6 59/3/6 57/2/6 63/1/6

# 0 vertex

# 0 normal

# 0 texture coordinate

o 立方体.4_1
usemtl RandomColor_12
f 27/4/1 28/3/1 26/2/1 25/1/1
f 29/4/2 30/3/2 28/2/2 27/1/2
f 31/4/3 32/3/3 30/2/3 29/1/3
f 25/4/4 26/3/4 32/2/4 31/1/4
f 28/4/5 30/3/5 32/2/5 26/1/5
f 29/4/6 27/3/6 25/2/6 31/1/6

# 0 vertex

# 0 normal

# 0 texture coordinate

o 立方体.3_1
usemtl RandomColor_13
f 35/4/1 36/3/1 34/2/1 33/1/1
f 37/4/2 38/3/2 36/2/2 35/1/2
f 39/4/3 40/3/3 38/2/3 37/1/3
f 33/4/4 34/3/4 40/2/4 39/1/4
f 36/4/5 38/3/5 40/2/5 34/1/5
f 37/4/6 35/3/6 33/2/6 39/1/6

# 0 vertex

# 0 normal

# 0 texture coordinate

o 立方体.2_1
usemtl RandomColor_14
f 43/4/1 44/3/1 42/2/1 41/1/1
f 45/4/2 46/3/2 44/2/2 43/1/2
f 47/4/3 48/3/3 46/2/3 45/1/3
f 41/4/4 42/3/4 48/2/4 47/1/4
f 44/4/5 46/3/5 48/2/5 42/1/5
f 45/4/6 43/3/6 41/2/6 47/1/6

# 0 vertex

# 0 normal

# 0 texture coordinate

o 立方体.1_1
usemtl RandomColor_15
f 51/4/1 52/3/1 50/2/1 49/1/1
f 53/4/2 54/3/2 52/2/2 51/1/2
f 55/4/3 56/3/3 54/2/3 53/1/3
f 49/4/4 50/3/4 56/2/4 55/1/4
f 52/4/5 54/3/5 56/2/5 50/1/5
f 53/4/6 51/3/6 49/2/6 55/1/6

# 0 vertex

# 0 normal

# 0 texture coordinate

o 立方体_1
usemtl RandomColor_16
f 59/4/1 60/3/1 58/2/1 57/1/1
f 61/4/2 62/3/2 60/2/2 59/1/2
f 63/4/3 64/3/3 62/2/3 61/1/3
f 57/4/4 58/3/4 64/2/4 63/1/4
f 60/4/5 62/3/5 64/2/5 58/1/5
f 61/4/6 59/3/6 57/2/6 63/1/6

